<?xml version="1.0" standalone="no"?><!-- Generator: Gravit.io --><svg xmlns="http://www.w3.org/2000/svg" xmlns:xlink="http://www.w3.org/1999/xlink" style="isolation:isolate" viewBox="986.2 1206.2 722.519 225.436" width="722.519" height="225.436"><g><linearGradient id="_lgradient_0" x1="0.1464466094067262" y1="0.14644660940672627" x2="0.8535533905932737" y2="0.8535533905932737" gradientTransform="matrix(105.871,0,0,121.214,1509.385,1221.993)" gradientUnits="userSpaceOnUse"><stop offset="0%" stop-opacity="1" style="stop-color:rgb(113,195,230)"/><stop offset="100%" stop-opacity="1" style="stop-color:rgb(40,79,210)"/></linearGradient><path d=" M 1585.736 1343.207 L 1601.55 1343.207 C 1609.115 1343.207 1615.256 1337.066 1615.256 1329.501 L 1615.256 1266.386 C 1615.256 1263.514 1614.371 1260.848 1612.859 1258.645 L 1613.462 1258.645 L 1612.086 1257.624 C 1610.694 1255.951 1608.911 1254.615 1606.878 1253.756 L 1564.106 1221.993 L 1517.659 1253.8 C 1516.032 1254.504 1514.569 1255.514 1513.341 1256.758 L 1510.585 1258.645 L 1511.782 1258.645 C 1510.27 1260.848 1509.385 1263.514 1509.385 1266.386 L 1509.385 1329.501 C 1509.385 1337.066 1515.527 1343.207 1523.091 1343.207 L 1538.905 1343.207 L 1538.905 1317.497 C 1538.905 1304.573 1549.397 1294.081 1562.321 1294.081 L 1562.321 1294.081 C 1575.244 1294.081 1585.736 1304.573 1585.736 1317.497 L 1585.736 1343.207 Z " fill-rule="evenodd" fill="url(#_lgradient_0)"/><path d=" M 1094.6 1322.6 L 1094.6 1277 L 1113.8 1277 L 1113.8 1331.6 L 1113.8 1331.6 Q 1103.4 1340.2 1089.6 1344.8 L 1089.6 1344.8 L 1089.6 1344.8 Q 1075.8 1349.4 1060.8 1349.4 L 1060.8 1349.4 L 1060.8 1349.4 Q 1039.6 1349.4 1022.6 1340.1 L 1022.6 1340.1 L 1022.6 1340.1 Q 1005.6 1330.8 995.9 1314.5 L 995.9 1314.5 L 995.9 1314.5 Q 986.2 1298.2 986.2 1277.8 L 986.2 1277.8 L 986.2 1277.8 Q 986.2 1257.4 995.9 1241 L 995.9 1241 L 995.9 1241 Q 1005.6 1224.6 1022.7 1215.4 L 1022.7 1215.4 L 1022.7 1215.4 Q 1039.8 1206.2 1061.2 1206.2 L 1061.2 1206.2 L 1061.2 1206.2 Q 1078 1206.2 1091.7 1211.7 L 1091.7 1211.7 L 1091.7 1211.7 Q 1105.4 1217.2 1115 1227.8 L 1115 1227.8 L 1102.6 1240.2 L 1102.6 1240.2 Q 1085.8 1224 1062 1224 L 1062 1224 L 1062 1224 Q 1046 1224 1033.3 1230.9 L 1033.3 1230.9 L 1033.3 1230.9 Q 1020.6 1237.8 1013.4 1250.1 L 1013.4 1250.1 L 1013.4 1250.1 Q 1006.2 1262.4 1006.2 1277.8 L 1006.2 1277.8 L 1006.2 1277.8 Q 1006.2 1293 1013.4 1305.3 L 1013.4 1305.3 L 1013.4 1305.3 Q 1020.6 1317.6 1033.3 1324.6 L 1033.3 1324.6 L 1033.3 1324.6 Q 1046 1331.6 1061.8 1331.6 L 1061.8 1331.6 L 1061.8 1331.6 Q 1080.6 1331.6 1094.6 1322.6 L 1094.6 1322.6 Z " fill="rgb(255,255,255)"/><path d=" M 1245 1295.4 L 1245 1295.4 Q 1245 1297.6 1244.6 1301.2 L 1244.6 1301.2 L 1158.6 1301.2 L 1158.6 1301.2 Q 1160.4 1315.2 1170.9 1323.7 L 1170.9 1323.7 L 1170.9 1323.7 Q 1181.4 1332.2 1197 1332.2 L 1197 1332.2 L 1197 1332.2 Q 1216 1332.2 1227.6 1319.4 L 1227.6 1319.4 L 1238.2 1331.8 L 1238.2 1331.8 Q 1231 1340.2 1220.3 1344.6 L 1220.3 1344.6 L 1220.3 1344.6 Q 1209.6 1349 1196.4 1349 L 1196.4 1349 L 1196.4 1349 Q 1179.6 1349 1166.6 1342.1 L 1166.6 1342.1 L 1166.6 1342.1 Q 1153.6 1335.2 1146.5 1322.8 L 1146.5 1322.8 L 1146.5 1322.8 Q 1139.4 1310.4 1139.4 1294.8 L 1139.4 1294.8 L 1139.4 1294.8 Q 1139.4 1279.4 1146.3 1267 L 1146.3 1267 L 1146.3 1267 Q 1153.2 1254.6 1165.3 1247.7 L 1165.3 1247.7 L 1165.3 1247.7 Q 1177.4 1240.8 1192.6 1240.8 L 1192.6 1240.8 L 1192.6 1240.8 Q 1207.8 1240.8 1219.7 1247.7 L 1219.7 1247.7 L 1219.7 1247.7 Q 1231.6 1254.6 1238.3 1267 L 1238.3 1267 L 1238.3 1267 Q 1245 1279.4 1245 1295.4 L 1245 1295.4 Z  M 1192.6 1257 L 1192.6 1257 Q 1178.8 1257 1169.5 1265.4 L 1169.5 1265.4 L 1169.5 1265.4 Q 1160.2 1273.8 1158.6 1287.4 L 1158.6 1287.4 L 1226.6 1287.4 L 1226.6 1287.4 Q 1225 1274 1215.7 1265.5 L 1215.7 1265.5 L 1215.7 1265.5 Q 1206.4 1257 1192.6 1257 L 1192.6 1257 Z " fill-rule="evenodd" fill="rgb(255,255,255)"/><path d=" M 1302.133 1347.4 L 1302.133 1347.4 Q 1289.133 1347.4 1277.133 1343.9 L 1277.133 1343.9 L 1277.133 1343.9 Q 1265.133 1340.4 1258.333 1335 L 1258.333 1335 L 1266.333 1319.8 L 1266.333 1319.8 Q 1273.333 1324.8 1283.333 1327.8 L 1283.333 1327.8 L 1283.333 1327.8 Q 1293.333 1330.8 1303.533 1330.8 L 1303.533 1330.8 L 1303.533 1330.8 Q 1328.733 1330.8 1328.733 1316.4 L 1328.733 1316.4 L 1328.733 1316.4 Q 1328.733 1311.6 1325.333 1308.8 L 1325.333 1308.8 L 1325.333 1308.8 Q 1321.933 1306 1316.833 1304.7 L 1316.833 1304.7 L 1316.833 1304.7 Q 1311.733 1303.4 1302.333 1301.8 L 1302.333 1301.8 L 1302.333 1301.8 Q 1289.533 1299.8 1281.433 1297.2 L 1281.433 1297.2 L 1281.433 1297.2 Q 1273.333 1294.6 1267.533 1288.4 L 1267.533 1288.4 L 1267.533 1288.4 Q 1261.733 1282.2 1261.733 1271 L 1261.733 1271 L 1261.733 1271 Q 1261.733 1256.6 1273.733 1247.9 L 1273.733 1247.9 L 1273.733 1247.9 Q 1285.733 1239.2 1305.933 1239.2 L 1305.933 1239.2 L 1305.933 1239.2 Q 1316.533 1239.2 1327.133 1241.8 L 1327.133 1241.8 L 1327.133 1241.8 Q 1337.733 1244.4 1344.533 1248.8 L 1344.533 1248.8 L 1336.333 1264 L 1336.333 1264 Q 1323.333 1255.6 1305.733 1255.6 L 1305.733 1255.6 L 1305.733 1255.6 Q 1293.533 1255.6 1287.133 1259.6 L 1287.133 1259.6 L 1287.133 1259.6 Q 1280.733 1263.6 1280.733 1270.2 L 1280.733 1270.2 L 1280.733 1270.2 Q 1280.733 1275.4 1284.333 1278.4 L 1284.333 1278.4 L 1284.333 1278.4 Q 1287.933 1281.4 1293.233 1282.8 L 1293.233 1282.8 L 1293.233 1282.8 Q 1298.533 1284.2 1308.133 1286 L 1308.133 1286 L 1308.133 1286 Q 1320.933 1288.2 1328.833 1290.7 L 1328.833 1290.7 L 1328.833 1290.7 Q 1336.733 1293.2 1342.333 1299.2 L 1342.333 1299.2 L 1342.333 1299.2 Q 1347.933 1305.2 1347.933 1316 L 1347.933 1316 L 1347.933 1316 Q 1347.933 1330.4 1335.633 1338.9 L 1335.633 1338.9 L 1335.633 1338.9 Q 1323.333 1347.4 1302.133 1347.4 L 1302.133 1347.4 Z " fill="rgb(255,255,255)"/><path d=" M 1429.333 1206.2 L 1429.333 1206.2 Q 1456.533 1206.2 1472.133 1219.2 L 1472.133 1219.2 L 1472.133 1219.2 Q 1487.733 1232.2 1487.733 1255 L 1487.733 1255 L 1487.733 1255 Q 1487.733 1277.8 1472.133 1290.8 L 1472.133 1290.8 L 1472.133 1290.8 Q 1456.533 1303.8 1429.333 1303.8 L 1429.333 1303.8 L 1394.733 1303.8 L 1394.733 1346.2 L 1374.733 1346.2 L 1374.733 1206.2 L 1429.333 1206.2 Z  M 1428.733 1286.4 L 1428.733 1286.4 Q 1447.733 1286.4 1457.733 1278.3 L 1457.733 1278.3 L 1457.733 1278.3 Q 1467.733 1270.2 1467.733 1255 L 1467.733 1255 L 1467.733 1255 Q 1467.733 1239.8 1457.733 1231.7 L 1457.733 1231.7 L 1457.733 1231.7 Q 1447.733 1223.6 1428.733 1223.6 L 1428.733 1223.6 L 1394.733 1223.6 L 1394.733 1286.4 L 1428.733 1286.4 Z " fill-rule="evenodd" fill="rgb(255,255,255)"/><path d=" M 1702.719 1326.6 L 1708.719 1340.4 L 1708.719 1340.4 Q 1704.519 1344 1698.319 1345.9 L 1698.319 1345.9 L 1698.319 1345.9 Q 1692.119 1347.8 1685.519 1347.8 L 1685.519 1347.8 L 1685.519 1347.8 Q 1669.519 1347.8 1660.719 1339.2 L 1660.719 1339.2 L 1660.719 1339.2 Q 1651.919 1330.6 1651.919 1314.6 L 1651.919 1314.6 L 1651.919 1256.4 L 1633.919 1256.4 L 1633.919 1240.6 L 1651.919 1240.6 L 1651.919 1217.4 L 1671.119 1217.4 L 1671.119 1240.6 L 1701.519 1240.6 L 1701.519 1256.4 L 1671.119 1256.4 L 1671.119 1313.8 L 1671.119 1313.8 Q 1671.119 1322.4 1675.419 1327 L 1675.419 1327 L 1675.419 1327 Q 1679.719 1331.6 1687.719 1331.6 L 1687.719 1331.6 L 1687.719 1331.6 Q 1696.519 1331.6 1702.719 1326.6 L 1702.719 1326.6 Z " fill="rgb(255,255,255)"/><path d=" M 1317.257 1397.272 L 1317.257 1397.272 Q 1320.513 1397.272 1323.153 1398.746 L 1323.153 1398.746 L 1323.153 1398.746 Q 1325.793 1400.22 1327.289 1402.904 L 1327.289 1402.904 L 1327.289 1402.904 Q 1328.785 1405.588 1328.785 1409.02 L 1328.785 1409.02 L 1328.785 1409.02 Q 1328.785 1412.496 1327.289 1415.18 L 1327.289 1415.18 L 1327.289 1415.18 Q 1325.793 1417.864 1323.175 1419.338 L 1323.175 1419.338 L 1323.175 1419.338 Q 1320.557 1420.812 1317.257 1420.812 L 1317.257 1420.812 L 1317.257 1420.812 Q 1314.441 1420.812 1312.175 1419.646 L 1312.175 1419.646 L 1312.175 1419.646 Q 1309.909 1418.48 1308.457 1416.236 L 1308.457 1416.236 L 1308.457 1429.128 L 1305.333 1429.128 L 1305.333 1397.448 L 1308.325 1397.448 L 1308.325 1402.024 L 1308.325 1402.024 Q 1309.733 1399.736 1312.043 1398.504 L 1312.043 1398.504 L 1312.043 1398.504 Q 1314.353 1397.272 1317.257 1397.272 L 1317.257 1397.272 L 1317.257 1397.272 Z  M 1317.037 1418.04 L 1317.037 1418.04 Q 1319.457 1418.04 1321.437 1416.918 L 1321.437 1416.918 L 1321.437 1416.918 Q 1323.417 1415.796 1324.539 1413.728 L 1324.539 1413.728 L 1324.539 1413.728 Q 1325.661 1411.66 1325.661 1409.02 L 1325.661 1409.02 L 1325.661 1409.02 Q 1325.661 1406.38 1324.539 1404.334 L 1324.539 1404.334 L 1324.539 1404.334 Q 1323.417 1402.288 1321.437 1401.144 L 1321.437 1401.144 L 1321.437 1401.144 Q 1319.457 1400 1317.037 1400 L 1317.037 1400 L 1317.037 1400 Q 1314.573 1400 1312.615 1401.144 L 1312.615 1401.144 L 1312.615 1401.144 Q 1310.657 1402.288 1309.535 1404.334 L 1309.535 1404.334 L 1309.535 1404.334 Q 1308.413 1406.38 1308.413 1409.02 L 1308.413 1409.02 L 1308.413 1409.02 Q 1308.413 1411.66 1309.535 1413.728 L 1309.535 1413.728 L 1309.535 1413.728 Q 1310.657 1415.796 1312.615 1416.918 L 1312.615 1416.918 L 1312.615 1416.918 Q 1314.573 1418.04 1317.037 1418.04 L 1317.037 1418.04 L 1317.037 1418.04 Z  M 1343.261 1397.272 L 1343.261 1397.272 Q 1347.793 1397.272 1350.213 1399.538 L 1350.213 1399.538 L 1350.213 1399.538 Q 1352.633 1401.804 1352.633 1406.248 L 1352.633 1406.248 L 1352.633 1420.592 L 1349.641 1420.592 L 1349.641 1416.984 L 1349.641 1416.984 Q 1348.585 1418.788 1346.539 1419.8 L 1346.539 1419.8 L 1346.539 1419.8 Q 1344.493 1420.812 1341.677 1420.812 L 1341.677 1420.812 L 1341.677 1420.812 Q 1337.805 1420.812 1335.517 1418.964 L 1335.517 1418.964 L 1335.517 1418.964 Q 1333.229 1417.116 1333.229 1414.08 L 1333.229 1414.08 L 1333.229 1414.08 Q 1333.229 1411.132 1335.363 1409.328 L 1335.363 1409.328 L 1335.363 1409.328 Q 1337.497 1407.524 1342.161 1407.524 L 1342.161 1407.524 L 1349.509 1407.524 L 1349.509 1406.116 L 1349.509 1406.116 Q 1349.509 1403.124 1347.837 1401.562 L 1347.837 1401.562 L 1347.837 1401.562 Q 1346.165 1400 1342.953 1400 L 1342.953 1400 L 1342.953 1400 Q 1340.753 1400 1338.729 1400.726 L 1338.729 1400.726 L 1338.729 1400.726 Q 1336.705 1401.452 1335.253 1402.728 L 1335.253 1402.728 L 1333.845 1400.396 L 1333.845 1400.396 Q 1335.605 1398.9 1338.069 1398.086 L 1338.069 1398.086 L 1338.069 1398.086 Q 1340.533 1397.272 1343.261 1397.272 L 1343.261 1397.272 L 1343.261 1397.272 Z  M 1342.161 1418.348 L 1342.161 1418.348 Q 1344.801 1418.348 1346.693 1417.138 L 1346.693 1417.138 L 1346.693 1417.138 Q 1348.585 1415.928 1349.509 1413.64 L 1349.509 1413.64 L 1349.509 1409.856 L 1342.249 1409.856 L 1342.249 1409.856 Q 1336.309 1409.856 1336.309 1413.992 L 1336.309 1413.992 L 1336.309 1413.992 Q 1336.309 1416.016 1337.849 1417.182 L 1337.849 1417.182 L 1337.849 1417.182 Q 1339.389 1418.348 1342.161 1418.348 L 1342.161 1418.348 L 1342.161 1418.348 Z  M 1372.213 1416.94 L 1373.313 1419.184 L 1373.313 1419.184 Q 1372.433 1419.976 1371.135 1420.394 L 1371.135 1420.394 L 1371.135 1420.394 Q 1369.837 1420.812 1368.429 1420.812 L 1368.429 1420.812 L 1368.429 1420.812 Q 1365.173 1420.812 1363.413 1419.052 L 1363.413 1419.052 L 1363.413 1419.052 Q 1361.653 1417.292 1361.653 1414.08 L 1361.653 1414.08 L 1361.653 1400.088 L 1357.517 1400.088 L 1357.517 1397.448 L 1361.653 1397.448 L 1361.653 1392.388 L 1364.777 1392.388 L 1364.777 1397.448 L 1371.817 1397.448 L 1371.817 1400.088 L 1364.777 1400.088 L 1364.777 1413.904 L 1364.777 1413.904 Q 1364.777 1415.972 1365.811 1417.05 L 1365.811 1417.05 L 1365.811 1417.05 Q 1366.845 1418.128 1368.781 1418.128 L 1368.781 1418.128 L 1368.781 1418.128 Q 1369.749 1418.128 1370.651 1417.82 L 1370.651 1417.82 L 1370.651 1417.82 Q 1371.553 1417.512 1372.213 1416.94 L 1372.213 1416.94 L 1372.213 1416.94 Z  M 1381.981 1401.98 L 1381.981 1401.98 Q 1383.081 1399.648 1385.259 1398.46 L 1385.259 1398.46 L 1385.259 1398.46 Q 1387.437 1397.272 1390.649 1397.272 L 1390.649 1397.272 L 1390.649 1400.308 L 1389.901 1400.264 L 1389.901 1400.264 Q 1386.249 1400.264 1384.181 1402.508 L 1384.181 1402.508 L 1384.181 1402.508 Q 1382.113 1404.752 1382.113 1408.8 L 1382.113 1408.8 L 1382.113 1420.592 L 1378.989 1420.592 L 1378.989 1397.448 L 1381.981 1397.448 L 1381.981 1401.98 L 1381.981 1401.98 Z  M 1396.633 1420.592 L 1396.633 1397.448 L 1399.757 1397.448 L 1399.757 1420.592 L 1396.633 1420.592 L 1396.633 1420.592 Z  M 1398.217 1392.388 L 1398.217 1392.388 Q 1397.249 1392.388 1396.589 1391.728 L 1396.589 1391.728 L 1396.589 1391.728 Q 1395.929 1391.068 1395.929 1390.144 L 1395.929 1390.144 L 1395.929 1390.144 Q 1395.929 1389.264 1396.589 1388.604 L 1396.589 1388.604 L 1396.589 1388.604 Q 1397.249 1387.944 1398.217 1387.944 L 1398.217 1387.944 L 1398.217 1387.944 Q 1399.185 1387.944 1399.845 1388.582 L 1399.845 1388.582 L 1399.845 1388.582 Q 1400.505 1389.22 1400.505 1390.1 L 1400.505 1390.1 L 1400.505 1390.1 Q 1400.505 1391.068 1399.845 1391.728 L 1399.845 1391.728 L 1399.845 1391.728 Q 1399.185 1392.388 1398.217 1392.388 L 1398.217 1392.388 L 1398.217 1392.388 Z  M 1437.333 1397.272 L 1437.333 1397.272 Q 1441.689 1397.272 1444.175 1399.78 L 1444.175 1399.78 L 1444.175 1399.78 Q 1446.661 1402.288 1446.661 1407.172 L 1446.661 1407.172 L 1446.661 1420.592 L 1443.537 1420.592 L 1443.537 1407.48 L 1443.537 1407.48 Q 1443.537 1403.872 1441.799 1401.98 L 1441.799 1401.98 L 1441.799 1401.98 Q 1440.061 1400.088 1436.893 1400.088 L 1436.893 1400.088 L 1436.893 1400.088 Q 1433.285 1400.088 1431.217 1402.31 L 1431.217 1402.31 L 1431.217 1402.31 Q 1429.149 1404.532 1429.149 1408.448 L 1429.149 1408.448 L 1429.149 1420.592 L 1426.025 1420.592 L 1426.025 1407.48 L 1426.025 1407.48 Q 1426.025 1403.872 1424.287 1401.98 L 1424.287 1401.98 L 1424.287 1401.98 Q 1422.549 1400.088 1419.337 1400.088 L 1419.337 1400.088 L 1419.337 1400.088 Q 1415.773 1400.088 1413.683 1402.31 L 1413.683 1402.31 L 1413.683 1402.31 Q 1411.593 1404.532 1411.593 1408.448 L 1411.593 1408.448 L 1411.593 1420.592 L 1408.469 1420.592 L 1408.469 1397.448 L 1411.461 1397.448 L 1411.461 1401.672 L 1411.461 1401.672 Q 1412.693 1399.56 1414.893 1398.416 L 1414.893 1398.416 L 1414.893 1398.416 Q 1417.093 1397.272 1419.953 1397.272 L 1419.953 1397.272 L 1419.953 1397.272 Q 1422.857 1397.272 1424.991 1398.504 L 1424.991 1398.504 L 1424.991 1398.504 Q 1427.125 1399.736 1428.181 1402.156 L 1428.181 1402.156 L 1428.181 1402.156 Q 1429.457 1399.868 1431.855 1398.57 L 1431.855 1398.57 L 1431.855 1398.57 Q 1434.253 1397.272 1437.333 1397.272 L 1437.333 1397.272 L 1437.333 1397.272 Z  M 1464.613 1420.812 L 1464.613 1420.812 Q 1461.269 1420.812 1458.585 1419.294 L 1458.585 1419.294 L 1458.585 1419.294 Q 1455.901 1417.776 1454.361 1415.092 L 1454.361 1415.092 L 1454.361 1415.092 Q 1452.821 1412.408 1452.821 1409.02 L 1452.821 1409.02 L 1452.821 1409.02 Q 1452.821 1405.632 1454.361 1402.948 L 1454.361 1402.948 L 1454.361 1402.948 Q 1455.901 1400.264 1458.585 1398.768 L 1458.585 1398.768 L 1458.585 1398.768 Q 1461.269 1397.272 1464.613 1397.272 L 1464.613 1397.272 L 1464.613 1397.272 Q 1467.957 1397.272 1470.641 1398.768 L 1470.641 1398.768 L 1470.641 1398.768 Q 1473.325 1400.264 1474.843 1402.948 L 1474.843 1402.948 L 1474.843 1402.948 Q 1476.361 1405.632 1476.361 1409.02 L 1476.361 1409.02 L 1476.361 1409.02 Q 1476.361 1412.408 1474.843 1415.092 L 1474.843 1415.092 L 1474.843 1415.092 Q 1473.325 1417.776 1470.641 1419.294 L 1470.641 1419.294 L 1470.641 1419.294 Q 1467.957 1420.812 1464.613 1420.812 L 1464.613 1420.812 L 1464.613 1420.812 Z  M 1464.613 1418.04 L 1464.613 1418.04 Q 1467.077 1418.04 1469.035 1416.918 L 1469.035 1416.918 L 1469.035 1416.918 Q 1470.993 1415.796 1472.093 1413.728 L 1472.093 1413.728 L 1472.093 1413.728 Q 1473.193 1411.66 1473.193 1409.02 L 1473.193 1409.02 L 1473.193 1409.02 Q 1473.193 1406.38 1472.093 1404.312 L 1472.093 1404.312 L 1472.093 1404.312 Q 1470.993 1402.244 1469.035 1401.122 L 1469.035 1401.122 L 1469.035 1401.122 Q 1467.077 1400 1464.613 1400 L 1464.613 1400 L 1464.613 1400 Q 1462.149 1400 1460.191 1401.122 L 1460.191 1401.122 L 1460.191 1401.122 Q 1458.233 1402.244 1457.111 1404.312 L 1457.111 1404.312 L 1457.111 1404.312 Q 1455.989 1406.38 1455.989 1409.02 L 1455.989 1409.02 L 1455.989 1409.02 Q 1455.989 1411.66 1457.111 1413.728 L 1457.111 1413.728 L 1457.111 1413.728 Q 1458.233 1415.796 1460.191 1416.918 L 1460.191 1416.918 L 1460.191 1416.918 Q 1462.149 1418.04 1464.613 1418.04 L 1464.613 1418.04 L 1464.613 1418.04 Z  M 1494.533 1397.272 L 1494.533 1397.272 Q 1498.889 1397.272 1501.463 1399.802 L 1501.463 1399.802 L 1501.463 1399.802 Q 1504.037 1402.332 1504.037 1407.172 L 1504.037 1407.172 L 1504.037 1420.592 L 1500.913 1420.592 L 1500.913 1407.48 L 1500.913 1407.48 Q 1500.913 1403.872 1499.109 1401.98 L 1499.109 1401.98 L 1499.109 1401.98 Q 1497.305 1400.088 1493.961 1400.088 L 1493.961 1400.088 L 1493.961 1400.088 Q 1490.221 1400.088 1488.043 1402.31 L 1488.043 1402.31 L 1488.043 1402.31 Q 1485.865 1404.532 1485.865 1408.448 L 1485.865 1408.448 L 1485.865 1420.592 L 1482.741 1420.592 L 1482.741 1397.448 L 1485.733 1397.448 L 1485.733 1401.716 L 1485.733 1401.716 Q 1487.009 1399.604 1489.275 1398.438 L 1489.275 1398.438 L 1489.275 1398.438 Q 1491.541 1397.272 1494.533 1397.272 L 1494.533 1397.272 L 1494.533 1397.272 Z  M 1512.529 1420.592 L 1512.529 1397.448 L 1515.653 1397.448 L 1515.653 1420.592 L 1512.529 1420.592 L 1512.529 1420.592 Z  M 1514.113 1392.388 L 1514.113 1392.388 Q 1513.145 1392.388 1512.485 1391.728 L 1512.485 1391.728 L 1512.485 1391.728 Q 1511.825 1391.068 1511.825 1390.144 L 1511.825 1390.144 L 1511.825 1390.144 Q 1511.825 1389.264 1512.485 1388.604 L 1512.485 1388.604 L 1512.485 1388.604 Q 1513.145 1387.944 1514.113 1387.944 L 1514.113 1387.944 L 1514.113 1387.944 Q 1515.081 1387.944 1515.741 1388.582 L 1515.741 1388.582 L 1515.741 1388.582 Q 1516.401 1389.22 1516.401 1390.1 L 1516.401 1390.1 L 1516.401 1390.1 Q 1516.401 1391.068 1515.741 1391.728 L 1515.741 1391.728 L 1515.741 1391.728 Q 1515.081 1392.388 1514.113 1392.388 L 1514.113 1392.388 L 1514.113 1392.388 Z  M 1532.461 1397.272 L 1532.461 1397.272 Q 1536.993 1397.272 1539.413 1399.538 L 1539.413 1399.538 L 1539.413 1399.538 Q 1541.833 1401.804 1541.833 1406.248 L 1541.833 1406.248 L 1541.833 1420.592 L 1538.841 1420.592 L 1538.841 1416.984 L 1538.841 1416.984 Q 1537.785 1418.788 1535.739 1419.8 L 1535.739 1419.8 L 1535.739 1419.8 Q 1533.693 1420.812 1530.877 1420.812 L 1530.877 1420.812 L 1530.877 1420.812 Q 1527.005 1420.812 1524.717 1418.964 L 1524.717 1418.964 L 1524.717 1418.964 Q 1522.429 1417.116 1522.429 1414.08 L 1522.429 1414.08 L 1522.429 1414.08 Q 1522.429 1411.132 1524.563 1409.328 L 1524.563 1409.328 L 1524.563 1409.328 Q 1526.697 1407.524 1531.361 1407.524 L 1531.361 1407.524 L 1538.709 1407.524 L 1538.709 1406.116 L 1538.709 1406.116 Q 1538.709 1403.124 1537.037 1401.562 L 1537.037 1401.562 L 1537.037 1401.562 Q 1535.365 1400 1532.153 1400 L 1532.153 1400 L 1532.153 1400 Q 1529.953 1400 1527.929 1400.726 L 1527.929 1400.726 L 1527.929 1400.726 Q 1525.905 1401.452 1524.453 1402.728 L 1524.453 1402.728 L 1523.045 1400.396 L 1523.045 1400.396 Q 1524.805 1398.9 1527.269 1398.086 L 1527.269 1398.086 L 1527.269 1398.086 Q 1529.733 1397.272 1532.461 1397.272 L 1532.461 1397.272 L 1532.461 1397.272 Z  M 1531.361 1418.348 L 1531.361 1418.348 Q 1534.001 1418.348 1535.893 1417.138 L 1535.893 1417.138 L 1535.893 1417.138 Q 1537.785 1415.928 1538.709 1413.64 L 1538.709 1413.64 L 1538.709 1409.856 L 1531.449 1409.856 L 1531.449 1409.856 Q 1525.509 1409.856 1525.509 1413.992 L 1525.509 1413.992 L 1525.509 1413.992 Q 1525.509 1416.016 1527.049 1417.182 L 1527.049 1417.182 L 1527.049 1417.182 Q 1528.589 1418.348 1531.361 1418.348 L 1531.361 1418.348 L 1531.361 1418.348 Z  M 1550.325 1420.592 L 1550.325 1387.944 L 1553.449 1387.944 L 1553.449 1420.592 L 1550.325 1420.592 L 1550.325 1420.592 Z  M 1162.641 1415.576 L 1162.641 1405.192 L 1165.765 1405.192 L 1165.765 1416.94 L 1165.765 1416.94 Q 1163.609 1418.832 1160.661 1419.844 L 1160.661 1419.844 L 1160.661 1419.844 Q 1157.713 1420.856 1154.457 1420.856 L 1154.457 1420.856 L 1154.457 1420.856 Q 1149.837 1420.856 1146.141 1418.832 L 1146.141 1418.832 L 1146.141 1418.832 Q 1142.445 1416.808 1140.333 1413.222 L 1140.333 1413.222 L 1140.333 1413.222 Q 1138.221 1409.636 1138.221 1405.192 L 1138.221 1405.192 L 1138.221 1405.192 Q 1138.221 1400.748 1140.333 1397.162 L 1140.333 1397.162 L 1140.333 1397.162 Q 1142.445 1393.576 1146.141 1391.552 L 1146.141 1391.552 L 1146.141 1391.552 Q 1149.837 1389.528 1154.501 1389.528 L 1154.501 1389.528 L 1154.501 1389.528 Q 1158.021 1389.528 1160.969 1390.65 L 1160.969 1390.65 L 1160.969 1390.65 Q 1163.917 1391.772 1165.941 1393.972 L 1165.941 1393.972 L 1163.917 1396.04 L 1163.917 1396.04 Q 1160.265 1392.432 1154.633 1392.432 L 1154.633 1392.432 L 1154.633 1392.432 Q 1150.893 1392.432 1147.879 1394.082 L 1147.879 1394.082 L 1147.879 1394.082 Q 1144.865 1395.732 1143.149 1398.658 L 1143.149 1398.658 L 1143.149 1398.658 Q 1141.433 1401.584 1141.433 1405.192 L 1141.433 1405.192 L 1141.433 1405.192 Q 1141.433 1408.8 1143.149 1411.704 L 1143.149 1411.704 L 1143.149 1411.704 Q 1144.865 1414.608 1147.857 1416.28 L 1147.857 1416.28 L 1147.857 1416.28 Q 1150.849 1417.952 1154.589 1417.952 L 1154.589 1417.952 L 1154.589 1417.952 Q 1159.341 1417.952 1162.641 1415.576 L 1162.641 1415.576 L 1162.641 1415.576 Z  M 1194.497 1409.02 L 1194.453 1409.988 L 1175.093 1409.988 L 1175.093 1409.988 Q 1175.357 1413.596 1177.865 1415.818 L 1177.865 1415.818 L 1177.865 1415.818 Q 1180.373 1418.04 1184.201 1418.04 L 1184.201 1418.04 L 1184.201 1418.04 Q 1186.357 1418.04 1188.161 1417.27 L 1188.161 1417.27 L 1188.161 1417.27 Q 1189.965 1416.5 1191.285 1415.004 L 1191.285 1415.004 L 1193.045 1417.028 L 1193.045 1417.028 Q 1191.505 1418.876 1189.195 1419.844 L 1189.195 1419.844 L 1189.195 1419.844 Q 1186.885 1420.812 1184.113 1420.812 L 1184.113 1420.812 L 1184.113 1420.812 Q 1180.549 1420.812 1177.799 1419.294 L 1177.799 1419.294 L 1177.799 1419.294 Q 1175.049 1417.776 1173.509 1415.092 L 1173.509 1415.092 L 1173.509 1415.092 Q 1171.969 1412.408 1171.969 1409.02 L 1171.969 1409.02 L 1171.969 1409.02 Q 1171.969 1405.632 1173.443 1402.948 L 1173.443 1402.948 L 1173.443 1402.948 Q 1174.917 1400.264 1177.491 1398.768 L 1177.491 1398.768 L 1177.491 1398.768 Q 1180.065 1397.272 1183.277 1397.272 L 1183.277 1397.272 L 1183.277 1397.272 Q 1186.489 1397.272 1189.041 1398.768 L 1189.041 1398.768 L 1189.041 1398.768 Q 1191.593 1400.264 1193.045 1402.926 L 1193.045 1402.926 L 1193.045 1402.926 Q 1194.497 1405.588 1194.497 1409.02 L 1194.497 1409.02 L 1194.497 1409.02 Z  M 1183.277 1399.956 L 1183.277 1399.956 Q 1179.933 1399.956 1177.667 1402.09 L 1177.667 1402.09 L 1177.667 1402.09 Q 1175.401 1404.224 1175.093 1407.656 L 1175.093 1407.656 L 1191.505 1407.656 L 1191.505 1407.656 Q 1191.197 1404.224 1188.931 1402.09 L 1188.931 1402.09 L 1188.931 1402.09 Q 1186.665 1399.956 1183.277 1399.956 L 1183.277 1399.956 L 1183.277 1399.956 Z  M 1207.081 1420.812 L 1207.081 1420.812 Q 1204.265 1420.812 1201.691 1419.998 L 1201.691 1419.998 L 1201.691 1419.998 Q 1199.117 1419.184 1197.665 1417.952 L 1197.665 1417.952 L 1199.073 1415.488 L 1199.073 1415.488 Q 1200.525 1416.632 1202.725 1417.358 L 1202.725 1417.358 L 1202.725 1417.358 Q 1204.925 1418.084 1207.301 1418.084 L 1207.301 1418.084 L 1207.301 1418.084 Q 1210.469 1418.084 1211.987 1417.094 L 1211.987 1417.094 L 1211.987 1417.094 Q 1213.505 1416.104 1213.505 1414.3 L 1213.505 1414.3 L 1213.505 1414.3 Q 1213.505 1413.024 1212.669 1412.298 L 1212.669 1412.298 L 1212.669 1412.298 Q 1211.833 1411.572 1210.557 1411.198 L 1210.557 1411.198 L 1210.557 1411.198 Q 1209.281 1410.824 1207.169 1410.472 L 1207.169 1410.472 L 1207.169 1410.472 Q 1204.353 1409.944 1202.637 1409.394 L 1202.637 1409.394 L 1202.637 1409.394 Q 1200.921 1408.844 1199.711 1407.524 L 1199.711 1407.524 L 1199.711 1407.524 Q 1198.501 1406.204 1198.501 1403.872 L 1198.501 1403.872 L 1198.501 1403.872 Q 1198.501 1400.968 1200.921 1399.12 L 1200.921 1399.12 L 1200.921 1399.12 Q 1203.341 1397.272 1207.653 1397.272 L 1207.653 1397.272 L 1207.653 1397.272 Q 1209.897 1397.272 1212.141 1397.866 L 1212.141 1397.866 L 1212.141 1397.866 Q 1214.385 1398.46 1215.837 1399.428 L 1215.837 1399.428 L 1214.473 1401.936 L 1214.473 1401.936 Q 1211.613 1399.956 1207.653 1399.956 L 1207.653 1399.956 L 1207.653 1399.956 Q 1204.661 1399.956 1203.143 1401.012 L 1203.143 1401.012 L 1203.143 1401.012 Q 1201.625 1402.068 1201.625 1403.784 L 1201.625 1403.784 L 1201.625 1403.784 Q 1201.625 1405.104 1202.483 1405.896 L 1202.483 1405.896 L 1202.483 1405.896 Q 1203.341 1406.688 1204.617 1407.062 L 1204.617 1407.062 L 1204.617 1407.062 Q 1205.893 1407.436 1208.137 1407.832 L 1208.137 1407.832 L 1208.137 1407.832 Q 1210.909 1408.36 1212.581 1408.888 L 1212.581 1408.888 L 1212.581 1408.888 Q 1214.253 1409.416 1215.441 1410.692 L 1215.441 1410.692 L 1215.441 1410.692 Q 1216.629 1411.968 1216.629 1414.212 L 1216.629 1414.212 L 1216.629 1414.212 Q 1216.629 1417.248 1214.099 1419.03 L 1214.099 1419.03 L 1214.099 1419.03 Q 1211.569 1420.812 1207.081 1420.812 L 1207.081 1420.812 L 1207.081 1420.812 Z  M 1233.481 1416.94 L 1234.581 1419.184 L 1234.581 1419.184 Q 1233.701 1419.976 1232.403 1420.394 L 1232.403 1420.394 L 1232.403 1420.394 Q 1231.105 1420.812 1229.697 1420.812 L 1229.697 1420.812 L 1229.697 1420.812 Q 1226.441 1420.812 1224.681 1419.052 L 1224.681 1419.052 L 1224.681 1419.052 Q 1222.921 1417.292 1222.921 1414.08 L 1222.921 1414.08 L 1222.921 1400.088 L 1218.785 1400.088 L 1218.785 1397.448 L 1222.921 1397.448 L 1222.921 1392.388 L 1226.045 1392.388 L 1226.045 1397.448 L 1233.085 1397.448 L 1233.085 1400.088 L 1226.045 1400.088 L 1226.045 1413.904 L 1226.045 1413.904 Q 1226.045 1415.972 1227.079 1417.05 L 1227.079 1417.05 L 1227.079 1417.05 Q 1228.113 1418.128 1230.049 1418.128 L 1230.049 1418.128 L 1230.049 1418.128 Q 1231.017 1418.128 1231.919 1417.82 L 1231.919 1417.82 L 1231.919 1417.82 Q 1232.821 1417.512 1233.481 1416.94 L 1233.481 1416.94 L 1233.481 1416.94 Z  M 1248.353 1397.272 L 1248.353 1397.272 Q 1252.885 1397.272 1255.305 1399.538 L 1255.305 1399.538 L 1255.305 1399.538 Q 1257.725 1401.804 1257.725 1406.248 L 1257.725 1406.248 L 1257.725 1420.592 L 1254.733 1420.592 L 1254.733 1416.984 L 1254.733 1416.984 Q 1253.677 1418.788 1251.631 1419.8 L 1251.631 1419.8 L 1251.631 1419.8 Q 1249.585 1420.812 1246.769 1420.812 L 1246.769 1420.812 L 1246.769 1420.812 Q 1242.897 1420.812 1240.609 1418.964 L 1240.609 1418.964 L 1240.609 1418.964 Q 1238.321 1417.116 1238.321 1414.08 L 1238.321 1414.08 L 1238.321 1414.08 Q 1238.321 1411.132 1240.455 1409.328 L 1240.455 1409.328 L 1240.455 1409.328 Q 1242.589 1407.524 1247.253 1407.524 L 1247.253 1407.524 L 1254.601 1407.524 L 1254.601 1406.116 L 1254.601 1406.116 Q 1254.601 1403.124 1252.929 1401.562 L 1252.929 1401.562 L 1252.929 1401.562 Q 1251.257 1400 1248.045 1400 L 1248.045 1400 L 1248.045 1400 Q 1245.845 1400 1243.821 1400.726 L 1243.821 1400.726 L 1243.821 1400.726 Q 1241.797 1401.452 1240.345 1402.728 L 1240.345 1402.728 L 1238.937 1400.396 L 1238.937 1400.396 Q 1240.697 1398.9 1243.161 1398.086 L 1243.161 1398.086 L 1243.161 1398.086 Q 1245.625 1397.272 1248.353 1397.272 L 1248.353 1397.272 L 1248.353 1397.272 Z  M 1247.253 1418.348 L 1247.253 1418.348 Q 1249.893 1418.348 1251.785 1417.138 L 1251.785 1417.138 L 1251.785 1417.138 Q 1253.677 1415.928 1254.601 1413.64 L 1254.601 1413.64 L 1254.601 1409.856 L 1247.341 1409.856 L 1247.341 1409.856 Q 1241.401 1409.856 1241.401 1413.992 L 1241.401 1413.992 L 1241.401 1413.992 Q 1241.401 1416.016 1242.941 1417.182 L 1242.941 1417.182 L 1242.941 1417.182 Q 1244.481 1418.348 1247.253 1418.348 L 1247.253 1418.348 L 1247.253 1418.348 Z  M 1251.433 1393.576 L 1251.433 1393.576 Q 1250.421 1393.576 1249.629 1393.114 L 1249.629 1393.114 L 1249.629 1393.114 Q 1248.837 1392.652 1247.913 1391.816 L 1247.913 1391.816 L 1247.913 1391.816 Q 1247.121 1391.156 1246.659 1390.87 L 1246.659 1390.87 L 1246.659 1390.87 Q 1246.197 1390.584 1245.669 1390.584 L 1245.669 1390.584 L 1245.669 1390.584 Q 1244.657 1390.584 1244.041 1391.332 L 1244.041 1391.332 L 1244.041 1391.332 Q 1243.425 1392.08 1243.381 1393.4 L 1243.381 1393.4 L 1241.489 1393.4 L 1241.489 1393.4 Q 1241.577 1391.2 1242.633 1389.88 L 1242.633 1389.88 L 1242.633 1389.88 Q 1243.689 1388.56 1245.449 1388.56 L 1245.449 1388.56 L 1245.449 1388.56 Q 1246.461 1388.56 1247.231 1389 L 1247.231 1389 L 1247.231 1389 Q 1248.001 1389.44 1249.013 1390.32 L 1249.013 1390.32 L 1249.013 1390.32 Q 1249.717 1390.936 1250.201 1391.244 L 1250.201 1391.244 L 1250.201 1391.244 Q 1250.685 1391.552 1251.213 1391.552 L 1251.213 1391.552 L 1251.213 1391.552 Q 1252.181 1391.552 1252.797 1390.826 L 1252.797 1390.826 L 1252.797 1390.826 Q 1253.413 1390.1 1253.501 1388.824 L 1253.501 1388.824 L 1255.393 1388.824 L 1255.393 1388.824 Q 1255.305 1390.98 1254.249 1392.278 L 1254.249 1392.278 L 1254.249 1392.278 Q 1253.193 1393.576 1251.433 1393.576 L 1251.433 1393.576 L 1251.433 1393.576 Z  M 1275.677 1420.812 L 1275.677 1420.812 Q 1272.333 1420.812 1269.649 1419.294 L 1269.649 1419.294 L 1269.649 1419.294 Q 1266.965 1417.776 1265.425 1415.092 L 1265.425 1415.092 L 1265.425 1415.092 Q 1263.885 1412.408 1263.885 1409.02 L 1263.885 1409.02 L 1263.885 1409.02 Q 1263.885 1405.632 1265.425 1402.948 L 1265.425 1402.948 L 1265.425 1402.948 Q 1266.965 1400.264 1269.649 1398.768 L 1269.649 1398.768 L 1269.649 1398.768 Q 1272.333 1397.272 1275.677 1397.272 L 1275.677 1397.272 L 1275.677 1397.272 Q 1279.021 1397.272 1281.705 1398.768 L 1281.705 1398.768 L 1281.705 1398.768 Q 1284.389 1400.264 1285.907 1402.948 L 1285.907 1402.948 L 1285.907 1402.948 Q 1287.425 1405.632 1287.425 1409.02 L 1287.425 1409.02 L 1287.425 1409.02 Q 1287.425 1412.408 1285.907 1415.092 L 1285.907 1415.092 L 1285.907 1415.092 Q 1284.389 1417.776 1281.705 1419.294 L 1281.705 1419.294 L 1281.705 1419.294 Q 1279.021 1420.812 1275.677 1420.812 L 1275.677 1420.812 L 1275.677 1420.812 Z  M 1275.677 1418.04 L 1275.677 1418.04 Q 1278.141 1418.04 1280.099 1416.918 L 1280.099 1416.918 L 1280.099 1416.918 Q 1282.057 1415.796 1283.157 1413.728 L 1283.157 1413.728 L 1283.157 1413.728 Q 1284.257 1411.66 1284.257 1409.02 L 1284.257 1409.02 L 1284.257 1409.02 Q 1284.257 1406.38 1283.157 1404.312 L 1283.157 1404.312 L 1283.157 1404.312 Q 1282.057 1402.244 1280.099 1401.122 L 1280.099 1401.122 L 1280.099 1401.122 Q 1278.141 1400 1275.677 1400 L 1275.677 1400 L 1275.677 1400 Q 1273.213 1400 1271.255 1401.122 L 1271.255 1401.122 L 1271.255 1401.122 Q 1269.297 1402.244 1268.175 1404.312 L 1268.175 1404.312 L 1268.175 1404.312 Q 1267.053 1406.38 1267.053 1409.02 L 1267.053 1409.02 L 1267.053 1409.02 Q 1267.053 1411.66 1268.175 1413.728 L 1268.175 1413.728 L 1268.175 1413.728 Q 1269.297 1415.796 1271.255 1416.918 L 1271.255 1416.918 L 1271.255 1416.918 Q 1273.213 1418.04 1275.677 1418.04 L 1275.677 1418.04 L 1275.677 1418.04 Z " fill-rule="evenodd" fill="rgb(255,255,255)"/></g></svg>